# xmcd CD database file
#
# Track frame offsets:
#	150
#	10216
#	24150
#	54273
#	77989
#	103357
#	117130
#	144407
#	173491
#	192067
#	212135
#	232513
#	255474
#	285325
#	316230
#
# Disc length: 4608 seconds
#
# Revision: 0
# Processed by: cddbd v1.5.2PL0 Copyright (c) Steve Scherf et al.
# Submitted via: CDex 1.51
#
DISCID=b411fe0f
DTITLE=Munich Swing Stars - Best Of - Fine Art Of Swing
DYEAR=2008
DGENRE=Jazz
TTITLE0=Blues In The Closet
TTITLE1=Don t Be That Way	
TTITLE2=Stardust - Moonglow
TTITLE3=S'wonderful
TTITLE4=You Don t Know Me
TTITLE5=Cute
TTITLE6=Perdido
TTITLE7=Stormy Monday
TTITLE8=All The Things You Are
TTITLE9=Flying Home
TTITLE10=Bags Groove
TTITLE11=How High The Moon
TTITLE12=Georgia On My Mind
TTITLE13=Caravan
TTITLE14=Over The Rainbow
EXTD=YEAR: 2008
EXTT0=
EXTT1=
EXTT2=
EXTT3=
EXTT4=
EXTT5=
EXTT6=
EXTT7=
EXTT8=
EXTT9=
EXTT10=
EXTT11=
EXTT12=
EXTT13=
EXTT14=
PLAYORDER=
